<svg width="40" height="40" viewBox="0 0 40 40" fill="none" xmlns="http://www.w3.org/2000/svg">
<g id="bxs:up-arrow">
<path id="Vector" d="M35 8.3334L4.99998 8.3334C4.69625 8.33435 4.39852 8.41812 4.13886 8.5757C3.87919 8.73327 3.66742 8.95868 3.52633 9.22765C3.38524 9.49663 3.32017 9.799 3.33815 10.1022C3.35612 10.4054 3.45644 10.698 3.62832 10.9484L18.6283 32.6151C19.25 33.5134 20.7466 33.5134 21.37 32.6151L36.37 10.9484C36.5436 10.6985 36.6454 10.4058 36.6644 10.1021C36.6833 9.79837 36.6187 9.49527 36.4775 9.22572C36.3362 8.95618 36.1239 8.73048 35.8634 8.57316C35.6029 8.41585 35.3043 8.33292 35 8.3334Z" fill="black"/>
</g>
</svg>
