<svg width="36" height="36" viewBox="0 0 36 36" fill="none" xmlns="http://www.w3.org/2000/svg">
<g id="mingcute:telegram-fill">
<g id="Group">
<path id="Vector" fill-rule="evenodd" clip-rule="evenodd" d="M29.6655 6.645C30.0361 6.48899 30.4419 6.43518 30.8404 6.48918C31.2389 6.54317 31.6157 6.703 31.9315 6.95203C32.2473 7.20105 32.4906 7.53017 32.636 7.90512C32.7815 8.28008 32.8237 8.68716 32.7585 9.084L29.3565 29.7195C29.0265 31.71 26.8425 32.8515 25.017 31.86C23.49 31.0305 21.222 29.7525 19.182 28.419C18.162 27.7515 15.0375 25.614 15.4215 24.093C15.7515 22.7925 21.0015 17.9055 24.0015 15C25.179 13.8585 24.642 13.2 23.2515 14.25C19.7985 16.857 14.2545 20.8215 12.4215 21.9375C10.8045 22.9215 9.96147 23.0895 8.95347 22.9215C7.11447 22.6155 5.40897 22.1415 4.01697 21.564C2.13597 20.784 2.22747 18.198 4.01547 17.445L29.6655 6.645Z" fill="black"/>
</g>
</g>
</svg>
